<svg id="Component_27_2" data-name="Component 27 – 2" xmlns="http://www.w3.org/2000/svg" width="23.75" height="22.509" viewBox="0 0 23.75 22.509">
  <path id="Path_120" data-name="Path 120" d="M24.046,14.325a1.1,1.1,0,1,0,0-2.2H2.552a1.1,1.1,0,1,0,0,2.2ZM4.154,4.748a.29.29,0,0,1,.294-.287h5.04v-2.2H4.449A2.525,2.525,0,0,0,1.9,4.748V9.674H4.154Zm18.532,0V9.674h2.257V4.748a2.524,2.524,0,0,0-2.551-2.491H17.338v2.2h5.054A.29.29,0,0,1,22.686,4.748Zm0,17.527a.291.291,0,0,1-.294.287H17.338v2.2h5.054a2.524,2.524,0,0,0,2.551-2.491V17.341H22.686Zm-18.532,0V17.341H1.9v4.934a2.525,2.525,0,0,0,2.551,2.491h5.04v-2.2H4.449A.291.291,0,0,1,4.154,22.275Z" transform="translate(-1.424 -2.257)" fill="#fff"/>
</svg>
