<svg id="Component_35_4" data-name="Component 35 – 4" xmlns="http://www.w3.org/2000/svg" width="32.125" height="37.437" viewBox="0 0 32.125 37.437">
  <path id="Path_144" data-name="Path 144" d="M30.442,5.937l-5.2-3.86-6.169,7.952a2.726,2.726,0,0,0-.458-.091H17.308V5.756a4.926,4.926,0,0,0-9.852,0V9.938H6.15a2.8,2.8,0,0,0-2.8,2.8v8.5a2.8,2.8,0,0,0,2.8,2.8h8.507l1.2,1.22.9-1.22h1.85a2.806,2.806,0,0,0,2.807-2.8v-3.47ZM9.615,5.756a2.767,2.767,0,0,1,5.534,0V9.938H10.882L9.8,8.837l-.184.179Zm6.121,17.6L6.309,13.79,9.149,11l6.16,6.253L25.45,3.858l3.185,2.36Z" transform="translate(1.683 -0.831)" fill="#5c6e76"/>
  <path id="Path_145" data-name="Path 145" d="M25.779,12.431H4.384A3.373,3.373,0,0,0,1.016,15.8v5.655a3.371,3.371,0,0,0,3.368,3.368H25.779a3.371,3.371,0,0,0,3.368-3.368V15.8A3.373,3.373,0,0,0,25.779,12.431Zm1.209,9.023a1.208,1.208,0,0,1-1.209,1.209H4.384a1.208,1.208,0,0,1-1.209-1.209V15.8A1.21,1.21,0,0,1,4.384,14.59H25.779A1.21,1.21,0,0,1,26.988,15.8Z" transform="translate(-1.016 12.615)" fill="#5c6e76"/>
  <path id="Path_146" data-name="Path 146" d="M7.038,16.158H7.006l-1.211.063.667-1a.458.458,0,0,0,.086-.272.471.471,0,0,0-.179-.365.583.583,0,0,0-.389-.155.454.454,0,0,0-.434.272L5,15.775,4.456,14.7a.443.443,0,0,0-.419-.259.61.61,0,0,0-.4.149.446.446,0,0,0-.179.358.458.458,0,0,0,.086.272l.667,1L3,16.158H2.966a.435.435,0,0,0-.352.149.577.577,0,0,0-.136.384.553.553,0,0,0,.136.378.443.443,0,0,0,.35.142H3l1.211-.063-.667,1.013a.468.468,0,0,0-.086.272.461.461,0,0,0,.179.365.6.6,0,0,0,.4.155.457.457,0,0,0,.419-.272L5,17.606l.544,1.075a.446.446,0,0,0,.421.259.6.6,0,0,0,.4-.155.467.467,0,0,0,.179-.363.5.5,0,0,0-.086-.272l-.667-1,1.211.063h.03a.435.435,0,0,0,.352-.149.577.577,0,0,0,.136-.384.553.553,0,0,0-.136-.378A.443.443,0,0,0,7.038,16.158Z" transform="translate(0.678 14.927)" fill="#5c6e76"/>
  <path id="Path_147" data-name="Path 147" d="M12.217,16.158h-.035l-1.211.063.667-1a.458.458,0,0,0,.086-.272.465.465,0,0,0-.179-.365.579.579,0,0,0-.389-.155.451.451,0,0,0-.432.272l-.544,1.077L9.635,14.7a.446.446,0,0,0-.421-.259.614.614,0,0,0-.4.149.453.453,0,0,0-.179.358.458.458,0,0,0,.086.272l.669,1-1.213-.063H8.143a.434.434,0,0,0-.35.149.577.577,0,0,0-.136.384.553.553,0,0,0,.136.378.443.443,0,0,0,.35.142h.032l1.213-.063-.669,1.013a.465.465,0,0,0,.093.637.6.6,0,0,0,.4.155.459.459,0,0,0,.421-.272l.546-1.075.544,1.075a.445.445,0,0,0,.419.259.6.6,0,0,0,.4-.155.46.46,0,0,0,.179-.363.5.5,0,0,0-.086-.272l-.667-1,1.211.063h.032a.435.435,0,0,0,.352-.149.577.577,0,0,0,.136-.384.553.553,0,0,0-.136-.378A.443.443,0,0,0,12.217,16.158Z" transform="translate(6.681 14.927)" fill="#5c6e76"/>
  <path id="Path_148" data-name="Path 148" d="M14.807,16.158h-.035l-1.211.063.667-1a.458.458,0,0,0,.086-.272.471.471,0,0,0-.179-.365.579.579,0,0,0-.389-.155.454.454,0,0,0-.434.272l-.544,1.077L12.225,14.7a.446.446,0,0,0-.421-.259.614.614,0,0,0-.4.149.453.453,0,0,0-.179.358.458.458,0,0,0,.086.272l.669,1-1.213-.063h-.032a.434.434,0,0,0-.35.149.577.577,0,0,0-.136.384.553.553,0,0,0,.136.378.443.443,0,0,0,.35.142h.032l1.213-.063-.669,1.013a.465.465,0,0,0,.093.637.6.6,0,0,0,.4.155.459.459,0,0,0,.421-.272l.544-1.075.544,1.075a.446.446,0,0,0,.421.259.6.6,0,0,0,.4-.155.467.467,0,0,0,.179-.363.5.5,0,0,0-.086-.272l-.667-1,1.211.063H14.8a.438.438,0,0,0,.352-.149.577.577,0,0,0,.136-.384.553.553,0,0,0-.136-.378A.443.443,0,0,0,14.807,16.158Z" transform="translate(9.683 14.927)" fill="#5c6e76"/>
  <path id="Path_149" data-name="Path 149" d="M9.629,16.158H9.595l-1.211.063.667-1a.458.458,0,0,0,.086-.272.471.471,0,0,0-.179-.365.583.583,0,0,0-.389-.155.454.454,0,0,0-.434.272l-.544,1.077L7.047,14.7a.446.446,0,0,0-.421-.259.614.614,0,0,0-.4.149.453.453,0,0,0-.179.358.458.458,0,0,0,.086.272l.669,1-1.213-.063H5.555a.441.441,0,0,0-.352.149.577.577,0,0,0-.136.384.553.553,0,0,0,.136.378.448.448,0,0,0,.352.142h.032L6.8,17.149l-.669,1.013a.465.465,0,0,0,.093.637.6.6,0,0,0,.4.155.462.462,0,0,0,.421-.272l.544-1.075.544,1.075a.446.446,0,0,0,.421.259.6.6,0,0,0,.4-.155.467.467,0,0,0,.179-.363.5.5,0,0,0-.086-.272l-.667-1,1.211.063h.032a.441.441,0,0,0,.352-.149.577.577,0,0,0,.136-.384.553.553,0,0,0-.136-.378A.443.443,0,0,0,9.629,16.158Z" transform="translate(3.679 14.927)" fill="#5c6e76"/>
</svg>
