<svg id="Component_33_2" data-name="Component 33 – 2" xmlns="http://www.w3.org/2000/svg" width="28.826" height="38.367" viewBox="0 0 28.826 38.367">
  <g id="Group_254" data-name="Group 254">
    <path id="Path_128" data-name="Path 128" d="M7.219,24.274H19.995A2.876,2.876,0,0,0,22.869,21.4v-8.7a2.876,2.876,0,0,0-2.874-2.876H18.654V5.533a5.048,5.048,0,1,0-10.1,0V9.817H7.219a2.874,2.874,0,0,0-2.874,2.876v8.7A2.874,2.874,0,0,0,7.219,24.274Zm7.51-7.012a1.122,1.122,0,0,1-2.244,0V14.421a1.122,1.122,0,0,1,2.244,0ZM10.77,5.533a2.835,2.835,0,1,1,5.671,0V9.817H10.77Z" transform="translate(0.806 -0.484)" fill="#5c6e76"/>
    <path id="Path_129" data-name="Path 129" d="M27.391,12.085H5.466a3.453,3.453,0,0,0-3.449,3.452v5.795a3.454,3.454,0,0,0,3.449,3.452H27.391a3.456,3.456,0,0,0,3.452-3.452V15.537A3.455,3.455,0,0,0,27.391,12.085Zm1.239,9.247a1.24,1.24,0,0,1-1.239,1.239H5.466A1.238,1.238,0,0,1,4.23,21.332V15.537A1.237,1.237,0,0,1,5.466,14.3H27.391a1.238,1.238,0,0,1,1.239,1.239Z" transform="translate(-2.017 13.584)" fill="#5c6e76"/>
    <path id="Path_130" data-name="Path 130" d="M8.151,15.852l-.033,0-1.241.064.684-1.027a.479.479,0,0,0-.1-.655.606.606,0,0,0-.4-.157.465.465,0,0,0-.445.279l-.558,1.1-.558-1.1a.456.456,0,0,0-.431-.268.625.625,0,0,0-.412.153.458.458,0,0,0-.184.367.481.481,0,0,0,.089.281l.684,1.027-1.241-.064-.033,0a.441.441,0,0,0-.361.155.586.586,0,0,0-.139.392.566.566,0,0,0,.139.387.456.456,0,0,0,.361.146h.033l1.241-.064-.684,1.04a.469.469,0,0,0-.089.279.476.476,0,0,0,.184.374.609.609,0,0,0,.412.159.473.473,0,0,0,.431-.279l.558-1.1.558,1.1a.457.457,0,0,0,.431.266.609.609,0,0,0,.412-.159.48.48,0,0,0,.184-.374.511.511,0,0,0-.089-.279l-.684-1.027,1.241.064h.031a.446.446,0,0,0,.361-.153.59.59,0,0,0,.139-.392A.566.566,0,0,0,8.509,16,.449.449,0,0,0,8.151,15.852Z" transform="translate(-0.245 16.003)" fill="#5c6e76"/>
    <path id="Path_131" data-name="Path 131" d="M13.33,15.852l-.035,0-1.241.064.684-1.027a.474.474,0,0,0-.1-.655.6.6,0,0,0-.4-.157.464.464,0,0,0-.443.279l-.558,1.1-.56-1.1a.456.456,0,0,0-.431-.268.633.633,0,0,0-.412.153.464.464,0,0,0-.184.367.5.5,0,0,0,.089.281l.686,1.027-1.243-.064-.031,0a.441.441,0,0,0-.361.155.586.586,0,0,0-.139.392.566.566,0,0,0,.139.387.454.454,0,0,0,.358.146h.033l1.243-.064-.686,1.04a.477.477,0,0,0,.1.653.618.618,0,0,0,.412.159.471.471,0,0,0,.431-.279l.56-1.1.558,1.1a.456.456,0,0,0,.429.266.609.609,0,0,0,.412-.159.475.475,0,0,0,.186-.374.514.514,0,0,0-.091-.279l-.684-1.027,1.241.064h.033a.446.446,0,0,0,.361-.153.59.59,0,0,0,.139-.392A.566.566,0,0,0,13.688,16,.448.448,0,0,0,13.33,15.852Z" transform="translate(6.035 16.003)" fill="#5c6e76"/>
    <path id="Path_132" data-name="Path 132" d="M15.92,15.852l-.035,0-1.241.064.684-1.027a.481.481,0,0,0,.089-.281.476.476,0,0,0-.184-.374.6.6,0,0,0-.4-.157.465.465,0,0,0-.445.279l-.555,1.1-.56-1.1a.456.456,0,0,0-.431-.268.629.629,0,0,0-.412.153.464.464,0,0,0-.184.367.481.481,0,0,0,.089.281l.686,1.027-1.243-.064-.033,0a.44.44,0,0,0-.358.155.586.586,0,0,0-.139.392.566.566,0,0,0,.139.387.454.454,0,0,0,.358.146h.033l1.243-.064-.686,1.04a.469.469,0,0,0-.089.279.483.483,0,0,0,.184.374.614.614,0,0,0,.412.159.471.471,0,0,0,.431-.279l.56-1.1.555,1.1a.457.457,0,0,0,.431.266.609.609,0,0,0,.412-.159.473.473,0,0,0,.184-.374.511.511,0,0,0-.089-.279l-.684-1.027,1.241.064h.033a.449.449,0,0,0,.361-.153.59.59,0,0,0,.139-.392A.566.566,0,0,0,16.278,16,.449.449,0,0,0,15.92,15.852Z" transform="translate(9.175 16.003)" fill="#5c6e76"/>
    <path id="Path_133" data-name="Path 133" d="M10.742,15.852l-.035,0-1.241.064.684-1.027a.479.479,0,0,0-.1-.655.606.606,0,0,0-.4-.157.465.465,0,0,0-.445.279l-.558,1.1-.558-1.1a.456.456,0,0,0-.431-.268.629.629,0,0,0-.412.153.464.464,0,0,0-.184.367.481.481,0,0,0,.089.281l.686,1.027L6.6,15.855l-.033,0a.447.447,0,0,0-.361.155.586.586,0,0,0-.139.392.566.566,0,0,0,.139.387.462.462,0,0,0,.361.146H6.6l1.243-.064-.686,1.04a.469.469,0,0,0-.089.279.483.483,0,0,0,.184.374.614.614,0,0,0,.412.159.473.473,0,0,0,.431-.279l.558-1.1.558,1.1a.457.457,0,0,0,.431.266.609.609,0,0,0,.412-.159.48.48,0,0,0,.184-.374.511.511,0,0,0-.089-.279l-.684-1.027,1.241.064h.033a.452.452,0,0,0,.361-.153.59.59,0,0,0,.139-.392A.566.566,0,0,0,11.1,16,.449.449,0,0,0,10.742,15.852Z" transform="translate(2.894 16.003)" fill="#5c6e76"/>
  </g>
</svg>
