<svg xmlns="http://www.w3.org/2000/svg" width="43.016" height="39" viewBox="0 0 43.016 39">
  <g id="Component_5_1" data-name="Component 5 – 1" transform="translate(0 0)">
    <path id="Path_78" data-name="Path 78" d="M5.607,6.555V.984H9.375V6.555h5.607V10.3H9.375v5.571H5.607V10.3H0V6.555ZM11.214,17.7V12.127h5.607V6.555H29.873L33.292,10.3h5.956a3.621,3.621,0,0,1,2.628,1.131,3.576,3.576,0,0,1,1.14,2.613V36.329a3.429,3.429,0,0,1-1.14,2.567,3.688,3.688,0,0,1-2.628,1.088H9.375A3.693,3.693,0,0,1,6.745,38.9a3.434,3.434,0,0,1-1.138-2.567V17.7ZM24.267,34.413a9.122,9.122,0,0,0,6.614-2.7,8.79,8.79,0,0,0,2.76-6.528,8.932,8.932,0,0,0-2.76-6.572,9.046,9.046,0,0,0-6.614-2.743A8.9,8.9,0,0,0,17.7,18.614a9.006,9.006,0,0,0-2.716,6.572A8.862,8.862,0,0,0,17.7,31.714,8.975,8.975,0,0,0,24.267,34.413ZM18.31,25.186a5.964,5.964,0,0,1,5.956-6.008A5.856,5.856,0,0,1,28.56,20.92a5.781,5.781,0,0,1,1.753,4.266,5.682,5.682,0,0,1-1.753,4.179,5.854,5.854,0,0,1-4.293,1.74,5.787,5.787,0,0,1-4.248-1.7A5.713,5.713,0,0,1,18.31,25.186Z" transform="translate(0 -0.984)" fill="#5c6e76"/>
  </g>
</svg>
