<svg id="Component_7_1" data-name="Component 7 – 1" xmlns="http://www.w3.org/2000/svg" width="24.968" height="33.984" viewBox="0 0 24.968 33.984">
  <path id="Path_76" data-name="Path 76" d="M17.5,24.482a5.444,5.444,0,0,1-5.363-5.37V8.37A5.159,5.159,0,0,1,13.73,4.6a5.253,5.253,0,0,1,7.54,0A5.159,5.159,0,0,1,22.863,8.37V19.111a5.444,5.444,0,0,1-5.363,5.37Zm9.468-5.37h3.016a11.323,11.323,0,0,1-3.141,7.93,12.656,12.656,0,0,1-7.584,4.069v5.873H15.741V31.111a12.656,12.656,0,0,1-7.584-4.069,11.323,11.323,0,0,1-3.141-7.93H8.032a8.549,8.549,0,0,0,2.806,6.545,9.471,9.471,0,0,0,6.662,2.6,9.468,9.468,0,0,0,6.662-2.6A8.549,8.549,0,0,0,26.968,19.111Z" transform="translate(-5.016 -3)" fill="#5c6e76"/>
</svg>
