<svg id="Component_26_1" data-name="Component 26 – 1" xmlns="http://www.w3.org/2000/svg" width="44.554" height="41.93" viewBox="0 0 44.554 41.93">
  <path id="Path_119" data-name="Path 119" d="M19.6,43.1.7,28.78v-.611c0-2.064-.433-4.679,2.388-5.428h0l21.293-5.814S13.36,3.88,12.61,2.974a1.1,1.1,0,0,1,1.309-1.716c1.269.429,16.94,6.083,16.94,6.083a3.42,3.42,0,0,1,1.981,1.267c.809,1.075,11.446,17.064,11.446,17.064h0c1.461,1.931,1.591,5.685-2.275,7.407C40.13,33.916,19.6,43.1,19.6,43.1ZM5.863,24.882l13.919,9.779,8.765-3.291-13.7-8.957Zm33.3,2.441L25.1,19.176,17.058,21.7l13.555,8.74Z" transform="translate(-0.676 -1.171)" fill="#5c6e76"/>
</svg>
