<svg id="Component_6_1" data-name="Component 6 – 1" xmlns="http://www.w3.org/2000/svg" width="28.984" height="34.032" viewBox="0 0 28.984 34.032">
  <path id="Path_77" data-name="Path 77" d="M23.342.984V4.1H5.021v21.65h-3V4.1a3.057,3.057,0,0,1,.895-2.172A2.813,2.813,0,0,1,5.021.984Zm4.58,6.228a2.989,2.989,0,0,1,2.148.905A2.88,2.88,0,0,1,31,10.252V31.9a3,3,0,0,1-.93,2.172,2.938,2.938,0,0,1-2.148.942H11.177a2.938,2.938,0,0,1-2.148-.942A3,3,0,0,1,8.1,31.9V10.252a2.88,2.88,0,0,1,.93-2.135,2.989,2.989,0,0,1,2.148-.905Zm0,24.69V10.252H11.177V31.9Z" transform="translate(-2.016 -0.984)" fill="#5c6e76"/>
</svg>
