<svg id="Component_9_1" data-name="Component 9 – 1" xmlns="http://www.w3.org/2000/svg" width="42.032" height="34" viewBox="0 0 42.032 34">
  <path id="Path_74" data-name="Path 74" d="M39.17,3a3.691,3.691,0,0,1,2.638,1.2,3.623,3.623,0,0,1,1.208,2.612V33.192A3.623,3.623,0,0,1,41.808,35.8,3.691,3.691,0,0,1,39.17,37H4.83a3.7,3.7,0,0,1-2.682-1.15A3.638,3.638,0,0,1,.984,33.192V6.808A3.623,3.623,0,0,1,2.192,4.2,3.691,3.691,0,0,1,4.83,3ZM8.676,29.475H35.324L26.739,18.141l-6.616,8.5-4.83-5.667Z" transform="translate(-0.984 -3)" fill="#5c6e76"/>
</svg>
