<svg xmlns="http://www.w3.org/2000/svg" width="158" height="158" viewBox="0 0 158 158">
  <g id="Group_265" data-name="Group 265" transform="translate(-30 -202.8)">
    <g id="Rectangle_105" data-name="Rectangle 105" transform="translate(30 202.8)" fill="#f5f7f8" stroke="#e3e7e9" stroke-width="1">
      <rect width="158" height="158" stroke="none"/>
      <rect x="0.5" y="0.5" width="157" height="157" fill="none"/>
    </g>
    <g id="Group_254" data-name="Group 254" transform="translate(79 241.8)">
      <path id="Path_128" data-name="Path 128" d="M10.327,50H36.919A5.986,5.986,0,0,0,42.9,44.015V25.9a5.986,5.986,0,0,0-5.982-5.987H34.128V10.994a10.507,10.507,0,1,0-21.015,0V19.91H10.327A5.983,5.983,0,0,0,4.345,25.9V44.015A5.983,5.983,0,0,0,10.327,50ZM25.958,35.407a2.335,2.335,0,0,1-4.67,0V29.494a2.335,2.335,0,0,1,4.67,0ZM17.719,10.994a5.9,5.9,0,1,1,11.8,0V19.91h-11.8Z" transform="translate(6.376 -0.484)" fill="#e3e7e9"/>
      <path id="Path_129" data-name="Path 129" d="M54.832,12.085H9.2a7.187,7.187,0,0,0-7.18,7.184V31.331A7.19,7.19,0,0,0,9.2,38.516H54.832a7.194,7.194,0,0,0,7.184-7.184V19.269A7.191,7.191,0,0,0,54.832,12.085Zm2.579,19.246a2.581,2.581,0,0,1-2.579,2.579H9.2a2.577,2.577,0,0,1-2.574-2.579V19.269A2.574,2.574,0,0,1,9.2,16.69H54.832a2.578,2.578,0,0,1,2.579,2.579Z" transform="translate(-2.017 41.343)" fill="#e3e7e9"/>
      <path id="Path_130" data-name="Path 130" d="M13.2,17.769l-.069,0-2.584.134,1.423-2.137a1,1,0,0,0-.2-1.363,1.262,1.262,0,0,0-.829-.327.968.968,0,0,0-.926.58l-1.161,2.3L7.7,14.66a.949.949,0,0,0-.9-.557,1.3,1.3,0,0,0-.857.318.952.952,0,0,0-.382.765,1,1,0,0,0,.184.585l1.423,2.137-2.584-.134-.069,0a.918.918,0,0,0-.751.322,1.219,1.219,0,0,0-.29.815,1.179,1.179,0,0,0,.29.806.949.949,0,0,0,.751.3h.069l2.584-.134L5.748,22.047a.977.977,0,0,0-.184.58.991.991,0,0,0,.382.778,1.269,1.269,0,0,0,.857.332.985.985,0,0,0,.9-.58l1.161-2.3,1.161,2.3a.952.952,0,0,0,.9.553,1.269,1.269,0,0,0,.857-.332,1,1,0,0,0,.382-.778,1.063,1.063,0,0,0-.184-.58l-1.423-2.137,2.584.134H13.2a.929.929,0,0,0,.751-.318,1.227,1.227,0,0,0,.29-.815,1.179,1.179,0,0,0-.29-.806A.934.934,0,0,0,13.2,17.769Z" transform="translate(3.251 48.536)" fill="#e3e7e9"/>
      <path id="Path_131" data-name="Path 131" d="M18.384,17.769l-.074,0-2.584.134,1.423-2.137a.986.986,0,0,0-.2-1.363,1.253,1.253,0,0,0-.829-.327.966.966,0,0,0-.921.58l-1.161,2.3-1.165-2.3a.949.949,0,0,0-.9-.557,1.318,1.318,0,0,0-.857.318.966.966,0,0,0-.382.765,1.035,1.035,0,0,0,.184.585l1.428,2.137-2.588-.134-.064,0a.918.918,0,0,0-.751.322,1.219,1.219,0,0,0-.29.815,1.179,1.179,0,0,0,.29.806.945.945,0,0,0,.746.3h.069l2.588-.134-1.428,2.165a.992.992,0,0,0,.2,1.359,1.286,1.286,0,0,0,.857.332.98.98,0,0,0,.9-.58l1.165-2.3,1.161,2.3a.95.95,0,0,0,.893.553,1.269,1.269,0,0,0,.857-.332.989.989,0,0,0,.387-.778,1.07,1.07,0,0,0-.189-.58l-1.423-2.137,2.584.134h.069a.929.929,0,0,0,.751-.318,1.227,1.227,0,0,0,.29-.815,1.179,1.179,0,0,0-.29-.806A.934.934,0,0,0,18.384,17.769Z" transform="translate(21.923 48.536)" fill="#e3e7e9"/>
      <path id="Path_132" data-name="Path 132" d="M20.974,17.769l-.074,0-2.584.134,1.423-2.137a1,1,0,0,0,.184-.585.991.991,0,0,0-.382-.778,1.253,1.253,0,0,0-.829-.327.968.968,0,0,0-.926.58l-1.156,2.3-1.165-2.3a.949.949,0,0,0-.9-.557,1.309,1.309,0,0,0-.857.318.966.966,0,0,0-.382.765,1,1,0,0,0,.184.585l1.428,2.137-2.588-.134-.069,0a.915.915,0,0,0-.746.322,1.219,1.219,0,0,0-.29.815,1.179,1.179,0,0,0,.29.806.945.945,0,0,0,.746.3h.069l2.588-.134-1.428,2.165a.977.977,0,0,0-.184.58,1,1,0,0,0,.382.778,1.277,1.277,0,0,0,.857.332.98.98,0,0,0,.9-.58l1.165-2.3,1.156,2.3a.952.952,0,0,0,.9.553,1.269,1.269,0,0,0,.857-.332.984.984,0,0,0,.382-.778,1.063,1.063,0,0,0-.184-.58l-1.423-2.137,2.584.134h.069a.935.935,0,0,0,.751-.318,1.227,1.227,0,0,0,.29-.815,1.179,1.179,0,0,0-.29-.806A.934.934,0,0,0,20.974,17.769Z" transform="translate(31.261 48.536)" fill="#e3e7e9"/>
      <path id="Path_133" data-name="Path 133" d="M15.8,17.769l-.074,0-2.584.134,1.423-2.137a1,1,0,0,0-.2-1.363,1.262,1.262,0,0,0-.829-.327.968.968,0,0,0-.926.58l-1.161,2.3-1.161-2.3a.949.949,0,0,0-.9-.557,1.309,1.309,0,0,0-.857.318.966.966,0,0,0-.382.765,1,1,0,0,0,.184.585l1.428,2.137-2.588-.134-.069,0a.931.931,0,0,0-.751.322,1.219,1.219,0,0,0-.29.815,1.179,1.179,0,0,0,.29.806.962.962,0,0,0,.751.3h.069l2.588-.134L8.337,22.047a.977.977,0,0,0-.184.58,1,1,0,0,0,.382.778,1.277,1.277,0,0,0,.857.332.985.985,0,0,0,.9-.58l1.161-2.3,1.161,2.3a.952.952,0,0,0,.9.553,1.269,1.269,0,0,0,.857-.332,1,1,0,0,0,.382-.778,1.063,1.063,0,0,0-.184-.58l-1.423-2.137,2.584.134h.069a.941.941,0,0,0,.751-.318,1.227,1.227,0,0,0,.29-.815,1.179,1.179,0,0,0-.29-.806A.934.934,0,0,0,15.8,17.769Z" transform="translate(12.585 48.536)" fill="#e3e7e9"/>
    </g>
  </g>
</svg>
