<svg id="Component_11_1" data-name="Component 11 – 1" xmlns="http://www.w3.org/2000/svg" width="18" height="18" viewBox="0 0 18 18">
  <path id="Path_80" data-name="Path 80" d="M12.984,9.516H18V7.5H12.984Zm0,6.984H18V14.484H12.984Zm6,4.5H5.016a1.934,1.934,0,0,1-1.407-.609A1.934,1.934,0,0,1,3,18.984V5.016a1.934,1.934,0,0,1,.609-1.407A1.934,1.934,0,0,1,5.016,3H18.984a1.934,1.934,0,0,1,1.407.609A1.934,1.934,0,0,1,21,5.016V18.984A2.083,2.083,0,0,1,18.984,21ZM6,11.016h5.016V6H6Zm.984-4.032h3v3h-3ZM6,18h5.016V12.984H6Zm.984-3.984h3v3h-3Z" transform="translate(-3 -3)" fill="#5c6e76"/>
</svg>
