<svg xmlns="http://www.w3.org/2000/svg" width="19.508" height="19.968" viewBox="0 0 19.508 19.968">
  <g id="Component_13_1" data-name="Component 13 – 1" transform="translate(0)">
    <path id="Path_82" data-name="Path 82" d="M19.453,12.984l2.11,1.641c.218.156.25.375.093.656L19.641,18.75a.456.456,0,0,1-.61.187l-2.484-.984a8.428,8.428,0,0,1-1.688.984l-.375,2.625a.457.457,0,0,1-.468.422H9.984a.457.457,0,0,1-.468-.422l-.375-2.625a7.673,7.673,0,0,1-1.688-.984l-2.484.984a.457.457,0,0,1-.61-.187L2.344,15.281q-.234-.422.094-.656l2.109-1.641A7.606,7.606,0,0,1,4.5,12a7.6,7.6,0,0,1,.047-.984L2.438,9.375q-.328-.234-.094-.656L4.359,5.25a.458.458,0,0,1,.61-.188l2.484.985a8.489,8.489,0,0,1,1.688-.985l.375-2.625a.457.457,0,0,1,.468-.421h4.032a.457.457,0,0,1,.468.421l.375,2.625a7.678,7.678,0,0,1,1.688.985l2.484-.985a.458.458,0,0,1,.61.188l2.015,3.469c.157.281.125.5-.093.656l-2.11,1.641A7.6,7.6,0,0,1,19.5,12,7.606,7.606,0,0,1,19.453,12.984ZM12,15.516A3.523,3.523,0,0,0,15.516,12,3.523,3.523,0,0,0,12,8.484,3.523,3.523,0,0,0,8.484,12,3.523,3.523,0,0,0,12,15.516Z" transform="translate(-2.247 -2.016)" fill="#5c6e76"/>
  </g>
</svg>
